<svg width="304" height="121" viewBox="0 0 304 121" fill="none" xmlns="http://www.w3.org/2000/svg">
<mask id="path-1-outside-1_1_8" maskUnits="userSpaceOnUse" x="0" y="0" width="304" height="121" fill="black">
<rect fill="white" width="304" height="121"/>
<path d="M49.5 17.25H41.4375C40.3958 17.25 39.3125 17.375 38.1875 17.625C37.1042 17.8333 36.1042 18.1875 35.1875 18.6875C34.2708 19.1875 33.5208 19.8333 32.9375 20.625C32.3542 21.4167 32.0625 22.375 32.0625 23.5V45.5625C32.0625 48.7708 31.6042 51.6042 30.6875 54.0625C29.7708 56.4792 28.5833 58.5833 27.125 60.375C28.875 62.625 30.1042 65.0417 30.8125 67.625C31.5625 70.2083 31.9375 72.625 31.9375 74.875V97C31.9375 98.4583 32.3125 99.625 33.0625 100.5C33.8125 101.333 34.7083 101.979 35.75 102.438C36.7917 102.854 37.8333 103.125 38.875 103.25C39.9167 103.333 40.7292 103.375 41.3125 103.375H49.375V119.812H41.1875C39.4792 119.812 37.6458 119.625 35.6875 119.25C33.7708 118.917 31.8542 118.354 29.9375 117.562C28.0625 116.812 26.25 115.833 24.5 114.625C22.7917 113.417 21.2708 111.958 19.9375 110.25C18.6458 108.542 17.6042 106.583 16.8125 104.375C16.0625 102.167 15.6875 99.6667 15.6875 96.875V75C15.6875 72.7917 15.1042 71.1458 13.9375 70.0625C12.8125 68.9792 11.2292 68.4375 9.1875 68.4375C8.02083 68.4375 6.9375 68.2292 5.9375 67.8125C4.9375 67.3542 4.0625 66.7708 3.3125 66.0625C2.60417 65.3125 2.04167 64.4375 1.625 63.4375C1.20833 62.4375 1 61.375 1 60.25C1 59.125 1.20833 58.0833 1.625 57.125C2.04167 56.125 2.60417 55.2708 3.3125 54.5625C4.0625 53.8125 4.91667 53.2292 5.875 52.8125C6.875 52.3542 7.9375 52.1042 9.0625 52.0625C11.3125 52.0625 13 51.5208 14.125 50.4375C15.25 49.3125 15.8125 47.6875 15.8125 45.5625V23.5C15.8125 19.9167 16.5417 16.7292 18 13.9375C19.4583 11.1458 21.3958 8.79167 23.8125 6.875C26.2292 4.95833 28.9583 3.5 32 2.5C35.0833 1.5 38.2292 1 41.4375 1H49.5V17.25Z"/>
<path d="M133.5 96.875C133.5 98.0417 133.292 99.125 132.875 100.125C132.458 101.125 131.875 102 131.125 102.75C130.417 103.458 129.562 104.021 128.562 104.438C127.604 104.854 126.562 105.062 125.438 105.062H88.6875C86.6875 105.062 84.5417 104.833 82.25 104.375C80 103.917 77.7708 103.188 75.5625 102.188C73.3542 101.146 71.2083 99.8542 69.125 98.3125C67.0833 96.7292 65.2917 94.8333 63.75 92.625C62.2083 90.375 60.9583 87.7917 60 84.875C59.0833 81.9583 58.625 78.6667 58.625 75V37.5H74.875V75C74.875 77.125 75.2292 79.0417 75.9375 80.75C76.6875 82.4167 77.6875 83.8542 78.9375 85.0625C80.1875 86.2708 81.6458 87.2083 83.3125 87.875C85.0208 88.5 86.8542 88.8125 88.8125 88.8125H117.25V37.5H133.5V96.875Z"/>
<path d="M218.5 82.6875C218.5 84.9375 218.104 87.375 217.312 90C216.521 92.5833 215.229 95 213.438 97.25C211.688 99.4583 209.375 101.312 206.5 102.812C203.667 104.312 200.208 105.062 196.125 105.062H166.812C164.562 105.062 162.125 104.667 159.5 103.875C156.917 103.083 154.5 101.812 152.25 100.062C150.042 98.2708 148.188 95.9583 146.688 93.125C145.188 90.25 144.438 86.7708 144.438 82.6875C144.438 80.4375 144.833 78 145.625 75.375C146.417 72.75 147.688 70.3333 149.438 68.125C151.229 65.875 153.542 64 156.375 62.5C159.25 61 162.729 60.25 166.812 60.25H196.125V75.75H166.812C164.604 75.75 162.896 76.4375 161.688 77.8125C160.479 79.1458 159.875 80.8125 159.875 82.8125C159.875 84.9375 160.562 86.6042 161.938 87.8125C163.354 88.9792 165.021 89.5625 166.938 89.5625H196.125C198.333 89.5625 200.042 88.8958 201.25 87.5625C202.458 86.2292 203.062 84.5625 203.062 82.5625V59.875C203.062 57.75 202.396 56.0625 201.062 54.8125C199.771 53.5625 198.125 52.9375 196.125 52.9375H160.438V37.5H196.125C198.375 37.5 200.792 37.8958 203.375 38.6875C206 39.4792 208.417 40.7708 210.625 42.5625C212.875 44.3125 214.75 46.625 216.25 49.5C217.75 52.3333 218.5 55.7917 218.5 59.875V82.6875Z"/>
<path d="M276.188 60.25C276.188 61.375 275.979 62.4375 275.562 63.4375C275.146 64.4375 274.562 65.3125 273.812 66.0625C273.104 66.7708 272.25 67.3542 271.25 67.8125C270.292 68.2292 269.25 68.4375 268.125 68.4375C266 68.4375 264.354 68.9792 263.188 70.0625C262.062 71.1458 261.5 72.7917 261.5 75L261.625 96.875C261.625 99.6667 261.229 102.167 260.438 104.375C259.646 106.583 258.583 108.542 257.25 110.25C255.917 111.958 254.375 113.417 252.625 114.625C250.917 115.833 249.104 116.812 247.188 117.562C245.312 118.354 243.396 118.917 241.438 119.25C239.521 119.625 237.708 119.812 236 119.812H227.938L227.812 103.375H236C236.542 103.375 237.333 103.333 238.375 103.25C239.417 103.125 240.438 102.854 241.438 102.438C242.479 101.979 243.375 101.333 244.125 100.5C244.875 99.625 245.25 98.4583 245.25 97V74.875C245.25 72.625 245.625 70.2083 246.375 67.625C247.167 65.0417 248.396 62.625 250.062 60.375C248.604 58.5833 247.396 56.4792 246.438 54.0625C245.521 51.6042 245.062 48.7708 245.062 45.5625V23.5C244.854 22.3333 244.458 21.3542 243.875 20.5625C243.333 19.7708 242.646 19.125 241.812 18.625C240.979 18.125 240.042 17.7708 239 17.5625C238 17.3542 236.958 17.25 235.875 17.25H227.688V1H235.875C239.25 1 242.479 1.54167 245.562 2.625C248.646 3.66667 251.354 5.1875 253.688 7.1875C256.062 9.14583 257.938 11.5208 259.312 14.3125C260.688 17.0625 261.375 20.125 261.375 23.5C261.375 23.7917 261.396 25.7708 261.438 29.4375C261.479 33.0625 261.5 38.4375 261.5 45.5625C261.5 47.6875 262.042 49.3125 263.125 50.4375C264.208 51.5208 265.875 52.0625 268.125 52.0625C269.25 52.1042 270.292 52.3542 271.25 52.8125C272.25 53.2292 273.104 53.8125 273.812 54.5625C274.562 55.2708 275.146 56.125 275.562 57.125C275.979 58.0833 276.188 59.125 276.188 60.25Z"/>
<path d="M302.688 45.6875C302.688 46.8125 302.458 47.875 302 48.875C301.583 49.8333 301 50.6875 300.25 51.4375C299.542 52.1458 298.688 52.7083 297.688 53.125C296.729 53.5417 295.708 53.75 294.625 53.75C293.5 53.75 292.438 53.5417 291.438 53.125C290.479 52.7083 289.625 52.1458 288.875 51.4375C288.167 50.6875 287.604 49.8333 287.188 48.875C286.771 47.875 286.562 46.8125 286.562 45.6875C286.562 44.6042 286.771 43.5833 287.188 42.625C287.604 41.625 288.167 40.7708 288.875 40.0625C289.625 39.3125 290.479 38.7292 291.438 38.3125C292.438 37.8542 293.5 37.625 294.625 37.625C295.708 37.625 296.729 37.8542 297.688 38.3125C298.688 38.7292 299.542 39.3125 300.25 40.0625C301 40.7708 301.583 41.625 302 42.625C302.458 43.5833 302.688 44.6042 302.688 45.6875ZM292.812 116.562H281.438L287.188 85.125H302.562L292.812 116.562Z"/>
</mask>
<path d="M49.5 17.25H41.4375C40.3958 17.25 39.3125 17.375 38.1875 17.625C37.1042 17.8333 36.1042 18.1875 35.1875 18.6875C34.2708 19.1875 33.5208 19.8333 32.9375 20.625C32.3542 21.4167 32.0625 22.375 32.0625 23.5V45.5625C32.0625 48.7708 31.6042 51.6042 30.6875 54.0625C29.7708 56.4792 28.5833 58.5833 27.125 60.375C28.875 62.625 30.1042 65.0417 30.8125 67.625C31.5625 70.2083 31.9375 72.625 31.9375 74.875V97C31.9375 98.4583 32.3125 99.625 33.0625 100.5C33.8125 101.333 34.7083 101.979 35.75 102.438C36.7917 102.854 37.8333 103.125 38.875 103.25C39.9167 103.333 40.7292 103.375 41.3125 103.375H49.375V119.812H41.1875C39.4792 119.812 37.6458 119.625 35.6875 119.25C33.7708 118.917 31.8542 118.354 29.9375 117.562C28.0625 116.812 26.25 115.833 24.5 114.625C22.7917 113.417 21.2708 111.958 19.9375 110.25C18.6458 108.542 17.6042 106.583 16.8125 104.375C16.0625 102.167 15.6875 99.6667 15.6875 96.875V75C15.6875 72.7917 15.1042 71.1458 13.9375 70.0625C12.8125 68.9792 11.2292 68.4375 9.1875 68.4375C8.02083 68.4375 6.9375 68.2292 5.9375 67.8125C4.9375 67.3542 4.0625 66.7708 3.3125 66.0625C2.60417 65.3125 2.04167 64.4375 1.625 63.4375C1.20833 62.4375 1 61.375 1 60.25C1 59.125 1.20833 58.0833 1.625 57.125C2.04167 56.125 2.60417 55.2708 3.3125 54.5625C4.0625 53.8125 4.91667 53.2292 5.875 52.8125C6.875 52.3542 7.9375 52.1042 9.0625 52.0625C11.3125 52.0625 13 51.5208 14.125 50.4375C15.25 49.3125 15.8125 47.6875 15.8125 45.5625V23.5C15.8125 19.9167 16.5417 16.7292 18 13.9375C19.4583 11.1458 21.3958 8.79167 23.8125 6.875C26.2292 4.95833 28.9583 3.5 32 2.5C35.0833 1.5 38.2292 1 41.4375 1H49.5V17.25Z" fill="white"/>
<path d="M133.5 96.875C133.5 98.0417 133.292 99.125 132.875 100.125C132.458 101.125 131.875 102 131.125 102.75C130.417 103.458 129.562 104.021 128.562 104.438C127.604 104.854 126.562 105.062 125.438 105.062H88.6875C86.6875 105.062 84.5417 104.833 82.25 104.375C80 103.917 77.7708 103.188 75.5625 102.188C73.3542 101.146 71.2083 99.8542 69.125 98.3125C67.0833 96.7292 65.2917 94.8333 63.75 92.625C62.2083 90.375 60.9583 87.7917 60 84.875C59.0833 81.9583 58.625 78.6667 58.625 75V37.5H74.875V75C74.875 77.125 75.2292 79.0417 75.9375 80.75C76.6875 82.4167 77.6875 83.8542 78.9375 85.0625C80.1875 86.2708 81.6458 87.2083 83.3125 87.875C85.0208 88.5 86.8542 88.8125 88.8125 88.8125H117.25V37.5H133.5V96.875Z" fill="white"/>
<path d="M218.5 82.6875C218.5 84.9375 218.104 87.375 217.312 90C216.521 92.5833 215.229 95 213.438 97.25C211.688 99.4583 209.375 101.312 206.5 102.812C203.667 104.312 200.208 105.062 196.125 105.062H166.812C164.562 105.062 162.125 104.667 159.5 103.875C156.917 103.083 154.5 101.812 152.25 100.062C150.042 98.2708 148.188 95.9583 146.688 93.125C145.188 90.25 144.438 86.7708 144.438 82.6875C144.438 80.4375 144.833 78 145.625 75.375C146.417 72.75 147.688 70.3333 149.438 68.125C151.229 65.875 153.542 64 156.375 62.5C159.25 61 162.729 60.25 166.812 60.25H196.125V75.75H166.812C164.604 75.75 162.896 76.4375 161.688 77.8125C160.479 79.1458 159.875 80.8125 159.875 82.8125C159.875 84.9375 160.562 86.6042 161.938 87.8125C163.354 88.9792 165.021 89.5625 166.938 89.5625H196.125C198.333 89.5625 200.042 88.8958 201.25 87.5625C202.458 86.2292 203.062 84.5625 203.062 82.5625V59.875C203.062 57.75 202.396 56.0625 201.062 54.8125C199.771 53.5625 198.125 52.9375 196.125 52.9375H160.438V37.5H196.125C198.375 37.5 200.792 37.8958 203.375 38.6875C206 39.4792 208.417 40.7708 210.625 42.5625C212.875 44.3125 214.75 46.625 216.25 49.5C217.75 52.3333 218.5 55.7917 218.5 59.875V82.6875Z" fill="white"/>
<path d="M276.188 60.25C276.188 61.375 275.979 62.4375 275.562 63.4375C275.146 64.4375 274.562 65.3125 273.812 66.0625C273.104 66.7708 272.25 67.3542 271.25 67.8125C270.292 68.2292 269.25 68.4375 268.125 68.4375C266 68.4375 264.354 68.9792 263.188 70.0625C262.062 71.1458 261.5 72.7917 261.5 75L261.625 96.875C261.625 99.6667 261.229 102.167 260.438 104.375C259.646 106.583 258.583 108.542 257.25 110.25C255.917 111.958 254.375 113.417 252.625 114.625C250.917 115.833 249.104 116.812 247.188 117.562C245.312 118.354 243.396 118.917 241.438 119.25C239.521 119.625 237.708 119.812 236 119.812H227.938L227.812 103.375H236C236.542 103.375 237.333 103.333 238.375 103.25C239.417 103.125 240.438 102.854 241.438 102.438C242.479 101.979 243.375 101.333 244.125 100.5C244.875 99.625 245.25 98.4583 245.25 97V74.875C245.25 72.625 245.625 70.2083 246.375 67.625C247.167 65.0417 248.396 62.625 250.062 60.375C248.604 58.5833 247.396 56.4792 246.438 54.0625C245.521 51.6042 245.062 48.7708 245.062 45.5625V23.5C244.854 22.3333 244.458 21.3542 243.875 20.5625C243.333 19.7708 242.646 19.125 241.812 18.625C240.979 18.125 240.042 17.7708 239 17.5625C238 17.3542 236.958 17.25 235.875 17.25H227.688V1H235.875C239.25 1 242.479 1.54167 245.562 2.625C248.646 3.66667 251.354 5.1875 253.688 7.1875C256.062 9.14583 257.938 11.5208 259.312 14.3125C260.688 17.0625 261.375 20.125 261.375 23.5C261.375 23.7917 261.396 25.7708 261.438 29.4375C261.479 33.0625 261.5 38.4375 261.5 45.5625C261.5 47.6875 262.042 49.3125 263.125 50.4375C264.208 51.5208 265.875 52.0625 268.125 52.0625C269.25 52.1042 270.292 52.3542 271.25 52.8125C272.25 53.2292 273.104 53.8125 273.812 54.5625C274.562 55.2708 275.146 56.125 275.562 57.125C275.979 58.0833 276.188 59.125 276.188 60.25Z" fill="white"/>
<path d="M302.688 45.6875C302.688 46.8125 302.458 47.875 302 48.875C301.583 49.8333 301 50.6875 300.25 51.4375C299.542 52.1458 298.688 52.7083 297.688 53.125C296.729 53.5417 295.708 53.75 294.625 53.75C293.5 53.75 292.438 53.5417 291.438 53.125C290.479 52.7083 289.625 52.1458 288.875 51.4375C288.167 50.6875 287.604 49.8333 287.188 48.875C286.771 47.875 286.562 46.8125 286.562 45.6875C286.562 44.6042 286.771 43.5833 287.188 42.625C287.604 41.625 288.167 40.7708 288.875 40.0625C289.625 39.3125 290.479 38.7292 291.438 38.3125C292.438 37.8542 293.5 37.625 294.625 37.625C295.708 37.625 296.729 37.8542 297.688 38.3125C298.688 38.7292 299.542 39.3125 300.25 40.0625C301 40.7708 301.583 41.625 302 42.625C302.458 43.5833 302.688 44.6042 302.688 45.6875ZM292.812 116.562H281.438L287.188 85.125H302.562L292.812 116.562Z" fill="white"/>
<path d="M49.5 17.25H41.4375C40.3958 17.25 39.3125 17.375 38.1875 17.625C37.1042 17.8333 36.1042 18.1875 35.1875 18.6875C34.2708 19.1875 33.5208 19.8333 32.9375 20.625C32.3542 21.4167 32.0625 22.375 32.0625 23.5V45.5625C32.0625 48.7708 31.6042 51.6042 30.6875 54.0625C29.7708 56.4792 28.5833 58.5833 27.125 60.375C28.875 62.625 30.1042 65.0417 30.8125 67.625C31.5625 70.2083 31.9375 72.625 31.9375 74.875V97C31.9375 98.4583 32.3125 99.625 33.0625 100.5C33.8125 101.333 34.7083 101.979 35.75 102.438C36.7917 102.854 37.8333 103.125 38.875 103.25C39.9167 103.333 40.7292 103.375 41.3125 103.375H49.375V119.812H41.1875C39.4792 119.812 37.6458 119.625 35.6875 119.25C33.7708 118.917 31.8542 118.354 29.9375 117.562C28.0625 116.812 26.25 115.833 24.5 114.625C22.7917 113.417 21.2708 111.958 19.9375 110.25C18.6458 108.542 17.6042 106.583 16.8125 104.375C16.0625 102.167 15.6875 99.6667 15.6875 96.875V75C15.6875 72.7917 15.1042 71.1458 13.9375 70.0625C12.8125 68.9792 11.2292 68.4375 9.1875 68.4375C8.02083 68.4375 6.9375 68.2292 5.9375 67.8125C4.9375 67.3542 4.0625 66.7708 3.3125 66.0625C2.60417 65.3125 2.04167 64.4375 1.625 63.4375C1.20833 62.4375 1 61.375 1 60.25C1 59.125 1.20833 58.0833 1.625 57.125C2.04167 56.125 2.60417 55.2708 3.3125 54.5625C4.0625 53.8125 4.91667 53.2292 5.875 52.8125C6.875 52.3542 7.9375 52.1042 9.0625 52.0625C11.3125 52.0625 13 51.5208 14.125 50.4375C15.25 49.3125 15.8125 47.6875 15.8125 45.5625V23.5C15.8125 19.9167 16.5417 16.7292 18 13.9375C19.4583 11.1458 21.3958 8.79167 23.8125 6.875C26.2292 4.95833 28.9583 3.5 32 2.5C35.0833 1.5 38.2292 1 41.4375 1H49.5V17.25Z" stroke="white" stroke-width="2" mask="url(#path-1-outside-1_1_8)"/>
<path d="M133.5 96.875C133.5 98.0417 133.292 99.125 132.875 100.125C132.458 101.125 131.875 102 131.125 102.75C130.417 103.458 129.562 104.021 128.562 104.438C127.604 104.854 126.562 105.062 125.438 105.062H88.6875C86.6875 105.062 84.5417 104.833 82.25 104.375C80 103.917 77.7708 103.188 75.5625 102.188C73.3542 101.146 71.2083 99.8542 69.125 98.3125C67.0833 96.7292 65.2917 94.8333 63.75 92.625C62.2083 90.375 60.9583 87.7917 60 84.875C59.0833 81.9583 58.625 78.6667 58.625 75V37.5H74.875V75C74.875 77.125 75.2292 79.0417 75.9375 80.75C76.6875 82.4167 77.6875 83.8542 78.9375 85.0625C80.1875 86.2708 81.6458 87.2083 83.3125 87.875C85.0208 88.5 86.8542 88.8125 88.8125 88.8125H117.25V37.5H133.5V96.875Z" stroke="white" stroke-width="2" mask="url(#path-1-outside-1_1_8)"/>
<path d="M218.5 82.6875C218.5 84.9375 218.104 87.375 217.312 90C216.521 92.5833 215.229 95 213.438 97.25C211.688 99.4583 209.375 101.312 206.5 102.812C203.667 104.312 200.208 105.062 196.125 105.062H166.812C164.562 105.062 162.125 104.667 159.5 103.875C156.917 103.083 154.5 101.812 152.25 100.062C150.042 98.2708 148.188 95.9583 146.688 93.125C145.188 90.25 144.438 86.7708 144.438 82.6875C144.438 80.4375 144.833 78 145.625 75.375C146.417 72.75 147.688 70.3333 149.438 68.125C151.229 65.875 153.542 64 156.375 62.5C159.25 61 162.729 60.25 166.812 60.25H196.125V75.75H166.812C164.604 75.75 162.896 76.4375 161.688 77.8125C160.479 79.1458 159.875 80.8125 159.875 82.8125C159.875 84.9375 160.562 86.6042 161.938 87.8125C163.354 88.9792 165.021 89.5625 166.938 89.5625H196.125C198.333 89.5625 200.042 88.8958 201.25 87.5625C202.458 86.2292 203.062 84.5625 203.062 82.5625V59.875C203.062 57.75 202.396 56.0625 201.062 54.8125C199.771 53.5625 198.125 52.9375 196.125 52.9375H160.438V37.5H196.125C198.375 37.5 200.792 37.8958 203.375 38.6875C206 39.4792 208.417 40.7708 210.625 42.5625C212.875 44.3125 214.75 46.625 216.25 49.5C217.75 52.3333 218.5 55.7917 218.5 59.875V82.6875Z" stroke="white" stroke-width="2" mask="url(#path-1-outside-1_1_8)"/>
<path d="M276.188 60.25C276.188 61.375 275.979 62.4375 275.562 63.4375C275.146 64.4375 274.562 65.3125 273.812 66.0625C273.104 66.7708 272.25 67.3542 271.25 67.8125C270.292 68.2292 269.25 68.4375 268.125 68.4375C266 68.4375 264.354 68.9792 263.188 70.0625C262.062 71.1458 261.5 72.7917 261.5 75L261.625 96.875C261.625 99.6667 261.229 102.167 260.438 104.375C259.646 106.583 258.583 108.542 257.25 110.25C255.917 111.958 254.375 113.417 252.625 114.625C250.917 115.833 249.104 116.812 247.188 117.562C245.312 118.354 243.396 118.917 241.438 119.25C239.521 119.625 237.708 119.812 236 119.812H227.938L227.812 103.375H236C236.542 103.375 237.333 103.333 238.375 103.25C239.417 103.125 240.438 102.854 241.438 102.438C242.479 101.979 243.375 101.333 244.125 100.5C244.875 99.625 245.25 98.4583 245.25 97V74.875C245.25 72.625 245.625 70.2083 246.375 67.625C247.167 65.0417 248.396 62.625 250.062 60.375C248.604 58.5833 247.396 56.4792 246.438 54.0625C245.521 51.6042 245.062 48.7708 245.062 45.5625V23.5C244.854 22.3333 244.458 21.3542 243.875 20.5625C243.333 19.7708 242.646 19.125 241.812 18.625C240.979 18.125 240.042 17.7708 239 17.5625C238 17.3542 236.958 17.25 235.875 17.25H227.688V1H235.875C239.25 1 242.479 1.54167 245.562 2.625C248.646 3.66667 251.354 5.1875 253.688 7.1875C256.062 9.14583 257.938 11.5208 259.312 14.3125C260.688 17.0625 261.375 20.125 261.375 23.5C261.375 23.7917 261.396 25.7708 261.438 29.4375C261.479 33.0625 261.5 38.4375 261.5 45.5625C261.5 47.6875 262.042 49.3125 263.125 50.4375C264.208 51.5208 265.875 52.0625 268.125 52.0625C269.25 52.1042 270.292 52.3542 271.25 52.8125C272.25 53.2292 273.104 53.8125 273.812 54.5625C274.562 55.2708 275.146 56.125 275.562 57.125C275.979 58.0833 276.188 59.125 276.188 60.25Z" stroke="white" stroke-width="2" mask="url(#path-1-outside-1_1_8)"/>
<path d="M302.688 45.6875C302.688 46.8125 302.458 47.875 302 48.875C301.583 49.8333 301 50.6875 300.25 51.4375C299.542 52.1458 298.688 52.7083 297.688 53.125C296.729 53.5417 295.708 53.75 294.625 53.75C293.5 53.75 292.438 53.5417 291.438 53.125C290.479 52.7083 289.625 52.1458 288.875 51.4375C288.167 50.6875 287.604 49.8333 287.188 48.875C286.771 47.875 286.562 46.8125 286.562 45.6875C286.562 44.6042 286.771 43.5833 287.188 42.625C287.604 41.625 288.167 40.7708 288.875 40.0625C289.625 39.3125 290.479 38.7292 291.438 38.3125C292.438 37.8542 293.5 37.625 294.625 37.625C295.708 37.625 296.729 37.8542 297.688 38.3125C298.688 38.7292 299.542 39.3125 300.25 40.0625C301 40.7708 301.583 41.625 302 42.625C302.458 43.5833 302.688 44.6042 302.688 45.6875ZM292.812 116.562H281.438L287.188 85.125H302.562L292.812 116.562Z" stroke="white" stroke-width="2" mask="url(#path-1-outside-1_1_8)"/>
</svg>
